<svg xmlns="http://www.w3.org/2000/svg" width="60" height="60" viewBox="0 0 60 60">
  <rect width="60" height="60" fill="#2E8B57" rx="8"/>
  <g fill="white">
    <!-- Building icon representing IFC/BIM -->
    <rect x="12" y="20" width="8" height="25" opacity="0.9"/>
    <rect x="22" y="15" width="8" height="30" opacity="0.9"/>
    <rect x="32" y="18" width="8" height="27" opacity="0.9"/>
    <rect x="42" y="12" width="8" height="33" opacity="0.9"/>
    
    <!-- Windows -->
    <rect x="13.5" y="22" width="1.5" height="2" fill="#2E8B57"/>
    <rect x="16" y="22" width="1.5" height="2" fill="#2E8B57"/>
    <rect x="13.5" y="26" width="1.5" height="2" fill="#2E8B57"/>
    <rect x="16" y="26" width="1.5" height="2" fill="#2E8B57"/>
    
    <rect x="23.5" y="18" width="1.5" height="2" fill="#2E8B57"/>
    <rect x="26" y="18" width="1.5" height="2" fill="#2E8B57"/>
    <rect x="23.5" y="22" width="1.5" height="2" fill="#2E8B57"/>
    <rect x="26" y="22" width="1.5" height="2" fill="#2E8B57"/>
    
    <rect x="33.5" y="21" width="1.5" height="2" fill="#2E8B57"/>
    <rect x="36" y="21" width="1.5" height="2" fill="#2E8B57"/>
    <rect x="33.5" y="25" width="1.5" height="2" fill="#2E8B57"/>
    <rect x="36" y="25" width="1.5" height="2" fill="#2E8B57"/>
    
    <rect x="43.5" y="16" width="1.5" height="2" fill="#2E8B57"/>
    <rect x="46" y="16" width="1.5" height="2" fill="#2E8B57"/>
    <rect x="43.5" y="20" width="1.5" height="2" fill="#2E8B57"/>
    <rect x="46" y="20" width="1.5" height="2" fill="#2E8B57"/>
    
    <!-- IFC text -->
    <text x="30" y="52" text-anchor="middle" font-family="Arial, sans-serif" font-size="8" font-weight="bold">IFC</text>
  </g>
</svg>
